<svg width="65" height="62" viewBox="0 0 65 62" fill="none" xmlns="http://www.w3.org/2000/svg">
<g clip-path="url(#clip0_1219_94)">
<path d="M17.6016 49.7027C17.6016 50.1779 17.7066 50.6484 17.9108 51.0875C18.115 51.5265 18.4142 51.9254 18.7914 52.2614C19.1687 52.5975 19.6165 52.864 20.1094 53.0459C20.6023 53.2277 21.1306 53.3213 21.6641 53.3213C22.1976 53.3213 22.7258 53.2277 23.2187 53.0459C23.7116 52.864 24.1594 52.5975 24.5367 52.2614C24.9139 51.9254 25.2132 51.5265 25.4173 51.0875C25.6215 50.6484 25.7266 50.1779 25.7266 49.7027C25.7266 48.743 25.2985 47.8225 24.5367 47.1439C23.7748 46.4653 22.7415 46.084 21.6641 46.084C20.5866 46.084 19.5533 46.4653 18.7914 47.1439C18.0296 47.8225 17.6016 48.743 17.6016 49.7027Z" stroke="#78350F" stroke-width="3.125" stroke-linecap="round" stroke-linejoin="round"/>
<path d="M1.35425 5.07282H8.68571C9.29644 5.0725 9.88936 5.25607 10.3682 5.59371C10.8471 5.93135 11.1838 6.40325 11.3236 6.93279L21.6667 46.084H32.5001" stroke="#78350F" stroke-width="3.125" stroke-linecap="round" stroke-linejoin="round"/>
<path d="M59.54 30.5167L62.4568 22.7221C62.5925 22.3594 62.6294 21.9733 62.5645 21.5954C62.4997 21.2175 62.335 20.8588 62.084 20.5487C61.833 20.2387 61.5029 19.9862 61.1208 19.8121C60.7388 19.638 60.3158 19.5473 59.8866 19.5474H14.6575" stroke="#78350F" stroke-width="3.125" stroke-linecap="round" stroke-linejoin="round"/>
<path d="M19.752 38.8468H32.4297" stroke="#78350F" stroke-width="3.125" stroke-linecap="round" stroke-linejoin="round"/>
<path d="M36.5652 48.4965C36.5652 50.0805 36.9154 51.649 37.596 53.1125C38.2765 54.5759 39.274 55.9056 40.5314 57.0257C41.7889 58.1458 43.2817 59.0343 44.9247 59.6404C46.5676 60.2466 48.3285 60.5586 50.1068 60.5586C51.8852 60.5586 53.6461 60.2466 55.289 59.6404C56.932 59.0343 58.4248 58.1458 59.6823 57.0257C60.9397 55.9056 61.9372 54.5759 62.6177 53.1125C63.2982 51.649 63.6485 50.0805 63.6485 48.4965C63.6485 45.2974 62.2218 42.2294 59.6823 39.9673C57.1427 37.7052 53.6983 36.4344 50.1068 36.4344C46.5154 36.4344 43.071 37.7052 40.5314 39.9673C37.9919 42.2294 36.5652 45.2974 36.5652 48.4965Z" stroke="#78350F" stroke-width="3.125" stroke-linecap="round" stroke-linejoin="round"/>
<path d="M50.1069 43.6716V53.3213" stroke="#78350F" stroke-width="3.125" stroke-linecap="round" stroke-linejoin="round"/>
<path d="M44.6902 48.4965H55.5235" stroke="#78350F" stroke-width="3.125" stroke-linecap="round" stroke-linejoin="round"/>
</g>
<defs>
<clipPath id="clip0_1219_94">
<rect width="65" height="60.9375" fill="white" transform="translate(0 0.5)"/>
</clipPath>
</defs>
</svg>
