<svg width="52" height="55" viewBox="0 0 52 55" fill="none" xmlns="http://www.w3.org/2000/svg">
<path d="M24.7001 27.1562C32.0639 27.1562 38.0334 21.5598 38.0334 14.6562C38.0334 7.75269 32.0639 2.15625 24.7001 2.15625C17.3363 2.15625 11.3667 7.75269 11.3667 14.6562C11.3667 21.5598 17.3363 27.1562 24.7001 27.1562Z" stroke="#1C1C1E" stroke-width="2.91667" stroke-linecap="round" stroke-linejoin="round"/>
<path d="M39.8668 52.75C41.617 52.7149 43.3267 52.2497 44.8249 51.4009C46.3232 50.5521 47.5575 49.3494 48.4045 47.9132C49.2515 46.4769 49.6815 44.8573 49.6515 43.2164C49.6215 41.5755 49.1325 39.9707 48.2334 38.5625C45.8608 35.0515 42.5799 32.1598 38.6958 30.1561C34.8116 28.1524 30.4502 27.1017 26.0168 27.1017C21.5835 27.1017 17.222 28.1524 13.3378 30.1561C9.45362 32.1598 6.17278 35.0515 3.80014 38.5625C2.90111 39.9707 2.4121 41.5755 2.38209 43.2164C2.35207 44.8573 2.78203 46.4769 3.62903 47.9132C4.47603 49.3494 5.71039 50.5521 7.20864 51.4009C8.7069 52.2497 10.4166 52.7149 12.1667 52.75H39.8668Z" stroke="#1C1C1E" stroke-width="2.91667" stroke-linecap="round" stroke-linejoin="round"/>
</svg>
